<svg width="500" height="39" viewBox="0 0 500 39" fill="none" xmlns="http://www.w3.org/2000/svg">
<path d="M0 27C16.6667 12.1667 33.3333 12.1667 50 27C66.6667 41.8333 83.3333 41.8333 100 27C116.667 12.1667 133.333 12.1667 150 27C166.667 41.8333 183.333 41.8333 200 27C216.667 12.1667 233.333 12.1667 250 27C266.667 41.8333 283.333 41.8333 300 27C316.667 12.1667 333.333 12.1667 350 27C366.667 41.8333 383.333 41.8333 400 27C416.667 12.1667 433.333 12.1667 450 27C466.667 41.8333 483.333 41.8333 500 27V1H0V27Z" fill="#D0DEBB" stroke="#D0DEBB"/>
</svg>
