<svg width="500" height="33" viewBox="0 0 500 33" fill="none" xmlns="http://www.w3.org/2000/svg">
<path d="M0 20C16.6667 3.33333 33.3333 3.33333 50 20C66.6667 36.6667 83.3333 36.6667 100 20C116.667 3.33333 133.333 3.33333 150 20C166.667 36.6667 183.333 36.6667 200 20C216.667 3.33333 233.333 3.33333 250 20C266.667 36.6667 283.333 36.6667 300 20C316.667 3.33333 333.333 3.33333 350 20C366.667 36.6667 383.333 36.6667 400 20C416.667 3.33333 433.333 3.33333 450 20C466.667 36.6667 483.333 36.6667 500 20V-0.5H0V20Z" fill="#FFFF99" stroke="#FFFF99"/>
</svg>
