<svg width="500" height="26" viewBox="0 0 500 26" fill="none" xmlns="http://www.w3.org/2000/svg">
<path d="M0 13C16.6667 -3.66667 33.3333 -3.66667 50 13C66.6667 29.6667 83.3333 29.6667 100 13C116.667 -3.66667 133.333 -3.66667 150 13C166.667 29.6667 183.333 29.6667 200 13C216.667 -3.66667 233.333 -3.66667 250 13C266.667 29.6667 283.333 29.6667 300 13C316.667 -3.66667 333.333 -3.66667 350 13C366.667 29.6667 383.333 29.6667 400 13C416.667 -3.66667 433.333 -3.66667 450 13C466.667 29.6667 483.333 29.6667 500 13" stroke="black"/>
</svg>
